<svg width="80" height="80" viewBox="0 0 80 80" fill="none" xmlns="http://www.w3.org/2000/svg">
<path d="M40.2332 4C56.4382 4.00026 69.575 17.1376 69.575 33.3428C69.5749 35.1915 69.402 37 69.075 38.7539C68.8048 23.0545 55.996 10.4111 40.2322 10.4111C24.4685 10.4114 11.6595 23.0546 11.3894 38.7539C11.0624 37 10.8904 35.1915 10.8904 33.3428C10.8904 17.1375 24.0279 4 40.2332 4Z" fill="#EFEFEF"/>
<path d="M76.9658 32.6758C77.292 34.6579 77.4648 36.6921 77.4648 38.7666C77.4648 59.3296 60.7954 75.999 40.2324 75.999C19.6695 75.9989 3 59.3296 3 38.7666C3.00001 36.6922 3.17187 34.6578 3.49805 32.6758C3.49648 32.8155 3.49316 32.9556 3.49316 33.0957C3.49321 53.3863 19.9419 69.8348 40.2324 69.835C60.5231 69.835 76.9716 53.3863 76.9717 33.0957C76.9717 32.9556 76.9674 32.8156 76.9658 32.6758Z" fill="#EFEFEF"/>
</svg>
